<?xml version="1.0" encoding="UTF-8"?><svg id="Layer_2" xmlns="http://www.w3.org/2000/svg" viewBox="0 0 552.41 436.71">
<defs>
<style>.cls-1{fill:#fff;}.cls-2{fill:#b91d9e;}.cls-3{fill:#d100b3;}.cls-4{fill:#e83894;}.cls-5{fill:#ffdaf0;}.cls-6{fill:#eb68c1;}.cls-7{fill:#fce4f5;}.cls-8{fill:#e60c67;}.cls-9{fill:#ff50d2;}.cls-10{fill:#570063;}.cls-11{fill:#0ce685;}.cls-12{fill:#a60a66;}.cls-13{fill:#df2477;}.cls-14{fill:#21c058;}</style>
</defs>
<g id="Layer_1-2"><g>
<path class="cls-9" d="M221.32,425.71c-22.14,0-28.41-11.8-33.45-21.29-1.41-2.65-2.75-5.17-4.33-7.34-5.89,1.13-12.39,1.72-18.85,1.72-15.52,0-29.06-3.13-37.36-8.62-11.57,4.07-30.48,10.63-47.03,10.63-12.44,0-21.45-3.78-26.78-11.23-7.01-9.81-9.22-19.45-6.96-30.35,1.68-8.13,5.65-16.25,11.09-25.95,1.27-2.27,1.1-5.11-.43-7.24-13.71-19-18.78-36.73-16.46-57.49,.21-1.83-.4-3.68-1.66-5.07-3.42-3.79-12.12-13.92-18.98-25.98-8.66-15.24-11.17-27.76-7.47-37.22,8.37-21.38,40.57-23.35,56.05-24.31,.02,0,.12,0,.14,0,2.02-.12,3.92-1.19,5.06-2.85l.65-.95c9-13.21,22.26-28.33,66-40.68,13.42-18.48,34.88-39.82,51.78-39.82,26.75,0,44.4,21.4,56.84,40.46,18.95,2.13,42.98,18.26,59,39.72,.39,.37,1.71,1.13,3.14,1.41,15.49,3.04,52.09,13.02,57.31,39.86,3.14,16.16-20.57,38.26-41.83,52.27-2.13,1.4-3.33,3.83-3.13,6.35,2.02,25.91-3.12,51.99-14.5,73.45-10.04,18.95-24.1,32.63-38.56,37.54-1.99,.67-3.53,2.43-4.02,4.57-5.54,24.39-22.03,38.38-45.26,38.38Z"/><path class="cls-3" d="M192.32,102.69c22.15,0,37.45,19.71,48.24,36.42,1.42,2.2,3.77,3.68,6.38,3.88,16.63,1.29,38.48,16.78,52.45,35.53,2.14,2.87,6.28,4.87,9.79,5.56,10.38,2.04,44.58,10.31,48.63,31.17,1.19,6.13-9.87,23.05-37.08,40.99-5.47,3.6-8.55,9.86-8.04,16.39,1.87,23.91-2.78,47.68-13.25,67.44-8.65,16.32-20.8,28.35-32.37,32.27-5.65,1.92-9.89,6.74-11.21,12.55-2.87,12.65-11.09,29.82-34.53,29.82-15.53,0-18.97-6.48-23.73-15.45-1.75-3.3-3.56-6.71-6.05-9.84-1.78-2.24-4.48-3.51-7.28-3.51-.62,0-1.24,.06-1.86,.19-5.46,1.12-11.58,1.71-17.7,1.71-13.37,0-25.54-2.72-31.76-7.11-1.59-1.12-3.46-1.7-5.36-1.7-1.04,0-2.08,.17-3.09,.53l-.2,.07c-10.86,3.82-29.03,10.23-44,10.23-13.1,0-16.66-4.99-17.84-6.63-5.24-7.33-6.77-13.82-5.14-21.72,1.42-6.85,5.1-14.22,9.91-22.8,3.38-6.03,2.94-13.45-1.1-19.05-12.16-16.85-16.47-31.77-14.45-49.83,.56-4.98-1.07-9.94-4.42-13.66-5.48-6.08-12.4-14.92-17.58-24.05-6.75-11.87-9.16-21.73-6.79-27.77,5.81-14.84,34.31-16.59,46.48-17.34,.04,0,.07,0,.11,0,5.42-.33,10.41-3.12,13.48-7.61,.22-.32,.44-.65,.67-.98,6.14-9.01,16.42-24.1,60.45-36.43,2.03-.57,3.8-1.81,5.04-3.52,14.92-20.71,33.09-35.73,43.2-35.73m0-22c-24.12,0-48.38,28.14-58.39,41.29-47,14-60.64,32.55-67.89,43.16-6.95,.44-17.37,1.26-27.71,3.9-18.6,4.74-30.69,13.9-35.92,27.25-4.97,12.7-2.23,28.4,8.15,46.67,6.62,11.64,14.79,21.57,19.06,26.43-2.03,21.99,3.29,40.95,17.12,60.9-5.26,9.58-9.13,17.93-10.95,26.73-2.89,13.92-.01,26.67,8.78,38.98,7.52,10.51,19.54,15.84,35.73,15.84s33.66-5.38,45.96-9.61c13.74,6.78,30.97,7.59,38.44,7.59,4.43,0,8.88-.25,13.19-.75,.09,.17,.18,.34,.28,.52,5.39,10.15,14.41,27.13,43.17,27.13s48.13-16.58,55.39-44.49c16.15-6.43,31.39-21.53,42.17-41.85,11.98-22.62,17.6-49.89,15.91-77.07,13.18-8.9,24.24-18.52,32.05-27.92,10.49-12.62,14.61-23.85,12.57-34.32-2.16-11.1-9.82-26.75-34.08-38.31-11.43-5.44-23.3-8.46-30.25-9.92-14.16-17.95-36.78-36.07-59.4-40.76-10.04-14.89-30.87-41.38-63.36-41.38h0Z"/></g><ellipse class="cls-7" cx="187.41" cy="253.22" rx="102.27" ry="91.23"/><g><ellipse class="cls-10" cx="152.63" cy="240.56" rx="19.48" ry="27.27"/><ellipse class="cls-5" cx="160.59" cy="229.92" rx="6.47" ry="8.23"/></g><g><ellipse class="cls-10" cx="234.58" cy="240.56" rx="19.48" ry="27.27"/><ellipse class="cls-5" cx="241.11" cy="230.4" rx="6.47" ry="8.23"/></g><g><path class="cls-10" d="M211.81,292.65c-3.68,4.4-9.39,7.67-17.89,7.67-9.43,0-15.06-5.16-18.02-11.36-4.36-9.11-2.97-20.47,.59-21.07,3.89-.66,9.51,3.65,20.24,3.55,10.73-.1,17.13-2.71,19.39-1.23,2.39,1.56,2.74,14.04-4.3,22.43Z"/><path class="cls-13" d="M211.81,292.65c-3.68,4.4-9.39,7.67-17.89,7.67-9.43,0-15.06-5.16-18.02-11.36,7.5-5.48,15.61-5.35,21.03-4.36,4.66,.85,10.9,3.48,14.89,8.05Z"/></g><g><path class="cls-14" d="M483.3,111.1c-7.49,5.81-24.43,2.7-40.24-7.91-4.45-2.99-8.38-6.28-11.69-9.69-2.49,6.99-4.22,11.38-4.22,11.38l-11.18-7.51c-27.35-69.57,2.72-104.48,25.41-95.37,11.93,4.79,7.39,32.96,.4,58.61-.16,.59,.19,1.2,.78,1.34,0,0,.01,0,.02,0,.57,.13,1.15-.2,1.31-.77,15.04-54.41,58.15-71.36,72.55-55.52,16.26,17.88-15.56,50.52-40.39,71.55-1.26,1.06-1.36,2.97-.22,4.16,.01,.01,.03,.03,.04,.04,1.03,1.06,2.67,1.19,3.84,.28,22.67-17.61,53.91-37.05,67.48-23.27,13.05,13.24-10.61,47-63.9,52.67Z"/><path class="cls-11" d="M547.2,58.43c6.58,4.66,6.4,12.72,2.36,19.07-6.12,9.69-15.99,16.11-25.69,21.65-15.53,8.39-32.31,14.41-49.8,16.86,19.36-9.62,39.14-17.97,57.37-29.45,8.99-6,24.37-16.02,15.76-28.13h0Z"/><path class="cls-4" d="M436.1,74.79c-49.56-21.11-97.69,28.92-101.58,57.09-3.89,28.17-9.99,116.81,45.94,117.99,53.53,1.13,104.56-54.87,122.48-87.14,1.92-3.46,3.5-7.1,4.48-10.93,8.52-33.06-24.86-57.22-71.33-77.01Z"/><path class="cls-6" d="M462.36,105.94c-20.17-3.84-43.23,20.38-48.45,52.36-4.95,30.35-6.89,45.78,11.67,54.37,21.55,9.97,67.64-29.73,68.61-62.79,.99-33.84-31.82-43.93-31.82-43.93Z"/><path class="cls-12" d="M446.4,111.71c3.39-8.22,.17-12.88-2.84-12.81s-17.03,19.83-10.05,24.56c6.98,4.73,12.9-11.76,12.9-11.76Z"/><path class="cls-12" d="M397.6,106.67c2.78-8.44-.77-12.86-3.76-12.57s-15.55,21.01-8.25,25.22,12.01-12.66,12.01-12.66Z"/><path class="cls-12" d="M476.08,154.94c4.8-7.48,2.47-12.64-.51-13.11-2.98-.46-20.3,16.47-14.28,22.37,6.02,5.9,14.79-9.26,14.79-9.26Z"/><path class="cls-12" d="M420.12,158.05c3.39-8.22,.17-12.88-2.84-12.81-3.01,.08-17.03,19.83-10.05,24.56,6.98,4.73,12.9-11.76,12.9-11.76Z"/><path class="cls-12" d="M363.23,135.87c3.39-8.22,.17-12.88-2.84-12.81-3.01,.08-17.03,19.83-10.05,24.56s12.9-11.76,12.9-11.76Z"/><path class="cls-12" d="M454.41,203.9c6.41-6.16,5.34-11.72,2.56-12.87-2.79-1.14-23.58,11.29-19.1,18.43,4.48,7.14,16.54-5.56,16.54-5.56Z"/><path class="cls-12" d="M379.62,180.39c2.29-8.59-1.51-12.79-4.49-12.33s-14.3,21.88-6.77,25.66c7.53,3.78,11.26-13.34,11.26-13.34Z"/><path class="cls-12" d="M397.58,223.25c6.6-5.96,5.69-11.56,2.94-12.78-2.75-1.23-23.91,10.57-19.65,17.84,4.26,7.27,16.7-5.06,16.7-5.06Z"/><path class="cls-2" d="M399.39,70.94c-24.6,16.14-46,32.64-53.87,62.26-5.69,20.72-5.24,42.43-4.96,63.78,.12,7.36,.4,14.75,.31,22.27-5.33-14.02-8.85-28.62-10.62-43.65-6.28-52.78,16.08-92.06,69.13-104.66h0Z"/><path class="cls-8" d="M493.67,109.59c17.6,15.19,19.47,36.63,9.47,56.85-14.58,29.17-44.84,52.78-72.36,69.22,23.85-22.39,50.36-43.36,66.44-72.19,10.18-18.87,9.51-36.52-3.55-53.88h0Z"/><path class="cls-11" d="M514.82,4.03c8.23,5.24,9.63,16.9,7.22,25.75-2.38,9.29-7.85,17.65-15.11,23.87-3.47,3.02-7.46,5.22-11.13,7.9-5.28,3.78-10.45,7.75-14.94,12.41-1.86,1.99-3.79,4.14-4.53,6.55-.04-.01-.12,0-.08,.04,1.34,.56,3.35-.36,4.75-.85,1.04-.39,2.06-.88,3.09-1.35-1.6,1.63-3.3,3.15-5.52,4.25-1.98,1.08-4.85,.8-5.24-1.92-.18-1.13,.06-2.29,.38-3.28,1.65-4.71,4.62-8.35,7.81-11.94,3.14-3.44,6.6-6.52,10.24-9.34,3.43-2.77,7.32-4.98,10.67-7.78,11.76-9.86,23.42-30.12,12.38-44.31h0Z"/><path class="cls-11" d="M435.56,.65c11.04,.07,14.49,11.68,14.38,20.93,.08,10.79-2.67,21.4-5.96,31.57-.61,2.24-1.44,4.55-1.28,6.83,.01,.09,.03,.15,0,.17-.02,.02-.11,0-.18,.02-.14,.08,.12,.12,.35-.03,.88-.57,1.46-1.51,2.05-2.45,.05,1.23-.13,2.55-.9,3.62-.86,1.27-2.66,1.22-3.48-.28-1.97-4.24-.24-9.16,.96-13.3,3.58-12.57,12.79-43.31-5.94-47.07h0Z"/></g><path class="cls-1" d="M512.71,98.35l-1.14,24.53c-.14,2.91,1.25,5.68,3.66,7.32l11.69,7.97c.75,.51,.45,1.67-.45,1.76l-14.19,1.32c-2.85,.26-5.37,1.96-6.69,4.51l-11.37,22.05c-.47,.92-1.86,.55-1.82-.48l1.05-24.9c.12-2.86-1.23-5.59-3.58-7.23l-11.56-8.08c-.74-.52-.42-1.68,.48-1.75l13.96-1.05c2.91-.22,5.49-1.93,6.83-4.52l11.31-21.92c.47-.92,1.87-.55,1.82,.49Z"/><path class="cls-1" d="M476.39,157.38l-.79,16.91c-.09,2.01,.86,3.92,2.52,5.05l8.06,5.5c.51,.35,.31,1.15-.31,1.21l-9.78,.91c-1.97,.18-3.7,1.35-4.61,3.11l-7.84,15.2c-.33,.63-1.28,.38-1.25-.33l.72-17.16c.08-1.97-.85-3.85-2.47-4.98l-7.96-5.57c-.51-.36-.29-1.16,.33-1.21l9.62-.73c2-.15,3.79-1.33,4.71-3.12l7.79-15.11c.33-.63,1.29-.38,1.25,.34Z"/>
</g>
</svg>