<?xml version="1.0" encoding="UTF-8"?><svg id="Layer_2" xmlns="http://www.w3.org/2000/svg" viewBox="0 0 223.18 249.89"><defs><style>.cls-1{fill:#fff;}.cls-2{fill:#b91d9e;}.cls-3{fill:#e83894;}.cls-4{fill:#eb68c1;}.cls-5{fill:#e60c67;}.cls-6{fill:#0ce685;}.cls-7{fill:#a60a66;}.cls-8{fill:#21c058;}</style></defs><g id="Layer_1-2"><g><path class="cls-8" d="M154.07,111.1c-7.49,5.81-24.43,2.7-40.24-7.91-4.45-2.99-8.38-6.28-11.69-9.69-2.49,6.99-4.22,11.38-4.22,11.38l-11.18-7.51C59.39,27.81,89.46-7.1,112.15,2.01c11.93,4.79,7.39,32.96,.4,58.61-.16,.59,.19,1.2,.78,1.34,0,0,.01,0,.02,0,.57,.13,1.15-.2,1.31-.77C129.71,6.79,172.82-10.16,187.22,5.67c16.26,17.88-15.56,50.52-40.39,71.55-1.26,1.06-1.36,2.97-.22,4.16,.01,.01,.03,.03,.04,.04,1.03,1.06,2.67,1.19,3.84,.28,22.67-17.61,53.91-37.05,67.48-23.27,13.05,13.24-10.61,47-63.9,52.67Z"/><path class="cls-6" d="M217.97,58.43c6.58,4.66,6.4,12.72,2.36,19.07-6.12,9.69-15.99,16.11-25.69,21.65-15.53,8.39-32.31,14.41-49.8,16.86,19.36-9.62,39.14-17.97,57.37-29.45,8.99-6,24.37-16.02,15.76-28.13h0Z"/><path class="cls-3" d="M106.88,74.79C57.31,53.69,9.19,103.71,5.3,131.88c-3.89,28.17-9.99,116.81,45.94,117.99,53.53,1.13,104.56-54.87,122.48-87.14,1.92-3.46,3.5-7.1,4.48-10.93,8.52-33.06-24.86-57.22-71.33-77.01Z"/><path class="cls-4" d="M133.14,105.94c-20.17-3.84-43.23,20.38-48.45,52.36-4.95,30.35-6.89,45.78,11.67,54.37,21.55,9.97,67.64-29.73,68.61-62.79,.99-33.84-31.82-43.93-31.82-43.93Z"/><path class="cls-7" d="M117.17,111.71c3.39-8.22,.17-12.88-2.84-12.81s-17.03,19.83-10.05,24.56c6.98,4.73,12.9-11.76,12.9-11.76Z"/><path class="cls-7" d="M68.37,106.67c2.78-8.44-.77-12.86-3.76-12.57s-15.55,21.01-8.25,25.22,12.01-12.66,12.01-12.66Z"/><path class="cls-7" d="M146.85,154.94c4.8-7.48,2.47-12.64-.51-13.11-2.98-.46-20.3,16.47-14.28,22.37,6.02,5.9,14.79-9.26,14.79-9.26Z"/><path class="cls-7" d="M90.89,158.05c3.39-8.22,.17-12.88-2.84-12.81-3.01,.08-17.03,19.83-10.05,24.56,6.98,4.73,12.9-11.76,12.9-11.76Z"/><path class="cls-7" d="M34,135.87c3.39-8.22,.17-12.88-2.84-12.81-3.01,.08-17.03,19.83-10.05,24.56s12.9-11.76,12.9-11.76Z"/><path class="cls-7" d="M125.18,203.9c6.41-6.16,5.34-11.72,2.56-12.87-2.79-1.14-23.58,11.29-19.1,18.43,4.48,7.14,16.54-5.56,16.54-5.56Z"/><path class="cls-7" d="M50.39,180.39c2.29-8.59-1.51-12.79-4.49-12.33s-14.3,21.88-6.77,25.66c7.53,3.78,11.26-13.34,11.26-13.34Z"/><path class="cls-7" d="M68.35,223.25c6.6-5.96,5.69-11.56,2.94-12.78-2.75-1.23-23.91,10.57-19.65,17.84,4.26,7.27,16.7-5.06,16.7-5.06Z"/><path class="cls-2" d="M70.16,70.94c-24.6,16.14-46,32.64-53.87,62.26-5.69,20.72-5.24,42.43-4.96,63.78,.12,7.36,.4,14.75,.31,22.27-5.33-14.02-8.85-28.62-10.62-43.65-6.28-52.78,16.08-92.06,69.13-104.66h0Z"/><path class="cls-5" d="M164.44,109.59c17.6,15.19,19.47,36.63,9.47,56.85-14.58,29.17-44.84,52.78-72.36,69.22,23.85-22.39,50.36-43.36,66.44-72.19,10.18-18.87,9.51-36.52-3.55-53.88h0Z"/><path class="cls-6" d="M185.59,4.03c8.23,5.24,9.63,16.9,7.22,25.75-2.38,9.29-7.85,17.65-15.11,23.87-3.47,3.02-7.46,5.22-11.13,7.9-5.28,3.78-10.45,7.75-14.94,12.41-1.86,1.99-3.79,4.14-4.53,6.55-.04-.01-.12,0-.08,.04,1.34,.56,3.35-.36,4.75-.85,1.04-.39,2.06-.88,3.09-1.35-1.6,1.63-3.3,3.15-5.52,4.25-1.98,1.08-4.85,.8-5.24-1.92-.18-1.13,.06-2.29,.38-3.28,1.65-4.71,4.62-8.35,7.81-11.94,3.14-3.44,6.6-6.52,10.24-9.34,3.43-2.77,7.32-4.98,10.67-7.78,11.76-9.86,23.42-30.12,12.38-44.31h0Z"/><path class="cls-6" d="M106.34,.65c11.04,.07,14.49,11.68,14.38,20.93,.08,10.79-2.67,21.4-5.96,31.57-.61,2.24-1.44,4.55-1.28,6.83,.01,.09,.03,.15,0,.17-.02,.02-.11,0-.18,.02-.14,.08,.12,.12,.35-.03,.88-.57,1.46-1.51,2.05-2.45,.05,1.23-.13,2.55-.9,3.62-.86,1.27-2.66,1.22-3.48-.28-1.97-4.24-.24-9.16,.96-13.3,3.58-12.57,12.79-43.31-5.94-47.07h0Z"/></g><path class="cls-1" d="M183.48,98.35l-1.14,24.53c-.14,2.91,1.25,5.68,3.66,7.32l11.69,7.97c.75,.51,.45,1.67-.45,1.76l-14.19,1.32c-2.85,.26-5.37,1.96-6.69,4.51l-11.37,22.05c-.47,.92-1.86,.55-1.82-.48l1.05-24.9c.12-2.86-1.23-5.59-3.58-7.23l-11.56-8.08c-.74-.52-.42-1.68,.48-1.75l13.96-1.05c2.91-.22,5.49-1.93,6.83-4.52l11.31-21.92c.47-.92,1.87-.55,1.82,.49Z"/><path class="cls-1" d="M147.16,157.38l-.79,16.91c-.09,2.01,.86,3.92,2.52,5.05l8.06,5.5c.51,.35,.31,1.15-.31,1.21l-9.78,.91c-1.97,.18-3.7,1.35-4.61,3.11l-7.84,15.2c-.33,.63-1.28,.38-1.25-.33l.72-17.16c.08-1.97-.85-3.85-2.47-4.98l-7.96-5.57c-.51-.36-.29-1.16,.33-1.21l9.62-.73c2-.15,3.79-1.33,4.71-3.12l7.79-15.11c.33-.63,1.29-.38,1.25,.34Z"/></g></svg>