<?xml version="1.0" encoding="UTF-8"?><svg id="Layer_2" xmlns="http://www.w3.org/2000/svg" viewBox="0 0 379.91 356.02"><defs><style>.cls-1{fill:#d100b3;}.cls-2{fill:#ffdaf0;}.cls-3{fill:#fce4f5;}.cls-4{fill:#ff50d2;}.cls-5{fill:#570063;}.cls-6{fill:#df2477;}</style></defs><g id="Layer_1-2"><g><path class="cls-4" d="M221.32,345.02c-22.14,0-28.41-11.8-33.45-21.29-1.41-2.65-2.75-5.17-4.33-7.34-5.89,1.13-12.39,1.72-18.85,1.72-15.52,0-29.06-3.13-37.36-8.62-11.57,4.07-30.48,10.63-47.03,10.63-12.44,0-21.45-3.78-26.78-11.23-7.01-9.81-9.22-19.45-6.96-30.35,1.68-8.13,5.65-16.25,11.09-25.95,1.27-2.27,1.1-5.11-.43-7.24-13.71-19-18.78-36.73-16.46-57.49,.21-1.83-.4-3.68-1.66-5.07-3.42-3.79-12.12-13.92-18.98-25.98-8.66-15.24-11.17-27.76-7.47-37.22,8.37-21.38,40.57-23.35,56.05-24.31,.02,0,.12,0,.14,0,2.02-.12,3.92-1.19,5.06-2.85l.65-.95c9-13.21,22.26-28.33,66-40.68,13.42-18.48,34.88-39.82,51.78-39.82,26.75,0,44.4,21.4,56.84,40.46,18.95,2.13,42.98,18.26,59,39.72,.39,.37,1.71,1.13,3.14,1.41,15.49,3.04,52.09,13.02,57.31,39.86,3.14,16.16-20.57,38.26-41.83,52.27-2.13,1.4-3.33,3.83-3.13,6.35,2.02,25.91-3.12,51.99-14.5,73.45-10.04,18.95-24.1,32.63-38.56,37.54-1.99,.67-3.53,2.43-4.02,4.57-5.54,24.39-22.03,38.38-45.26,38.38Z"/><path class="cls-1" d="M192.32,22c22.15,0,37.45,19.71,48.24,36.42,1.42,2.2,3.77,3.68,6.38,3.88,16.63,1.29,38.48,16.78,52.45,35.53,2.14,2.87,6.28,4.87,9.79,5.56,10.38,2.04,44.58,10.31,48.63,31.17,1.19,6.13-9.87,23.05-37.08,40.99-5.47,3.6-8.55,9.86-8.04,16.39,1.87,23.91-2.78,47.68-13.25,67.44-8.65,16.32-20.8,28.35-32.37,32.27-5.65,1.92-9.89,6.74-11.21,12.55-2.87,12.65-11.09,29.82-34.53,29.82-15.53,0-18.97-6.48-23.73-15.45-1.75-3.3-3.56-6.71-6.05-9.84-1.78-2.24-4.48-3.51-7.28-3.51-.62,0-1.24,.06-1.86,.19-5.46,1.12-11.58,1.71-17.7,1.71-13.37,0-25.54-2.72-31.76-7.11-1.59-1.12-3.46-1.7-5.36-1.7-1.04,0-2.08,.17-3.09,.53l-.2,.07c-10.86,3.82-29.03,10.23-44,10.23-13.1,0-16.66-4.99-17.84-6.63-5.24-7.33-6.77-13.82-5.14-21.72,1.42-6.85,5.1-14.22,9.91-22.8,3.38-6.03,2.94-13.45-1.1-19.05-12.16-16.85-16.47-31.77-14.45-49.83,.56-4.98-1.07-9.94-4.42-13.66-5.48-6.08-12.4-14.92-17.58-24.05-6.75-11.87-9.16-21.73-6.79-27.77,5.81-14.84,34.31-16.59,46.48-17.34,.04,0,.07,0,.11,0,5.42-.33,10.41-3.12,13.48-7.61,.22-.32,.44-.65,.67-.98,6.14-9.01,16.42-24.1,60.45-36.43,2.03-.57,3.8-1.81,5.04-3.52,14.92-20.71,33.09-35.73,43.2-35.73m0-22c-24.12,0-48.38,28.14-58.39,41.29-47,14-60.64,32.55-67.89,43.16-6.95,.44-17.37,1.26-27.71,3.9-18.6,4.74-30.69,13.9-35.92,27.25-4.97,12.7-2.23,28.4,8.15,46.67,6.62,11.64,14.79,21.57,19.06,26.43-2.03,21.99,3.29,40.95,17.12,60.9-5.26,9.58-9.13,17.93-10.95,26.73-2.89,13.92-.01,26.67,8.78,38.98,7.52,10.51,19.54,15.84,35.73,15.84s33.66-5.38,45.96-9.61c13.74,6.78,30.97,7.59,38.44,7.59,4.43,0,8.88-.25,13.19-.75,.09,.17,.18,.34,.28,.52,5.39,10.15,14.41,27.13,43.17,27.13s48.13-16.58,55.39-44.49c16.15-6.43,31.39-21.53,42.17-41.85,11.98-22.62,17.6-49.89,15.91-77.07,13.18-8.9,24.24-18.52,32.05-27.92,10.49-12.62,14.61-23.85,12.57-34.32-2.16-11.1-9.82-26.75-34.08-38.31-11.43-5.44-23.3-8.46-30.25-9.92-14.16-17.95-36.78-36.07-59.4-40.76C245.64,26.49,224.82,0,192.32,0h0Z"/></g><ellipse class="cls-3" cx="187.41" cy="172.53" rx="102.27" ry="91.23"/><g><ellipse class="cls-5" cx="152.63" cy="159.87" rx="19.48" ry="27.27"/><ellipse class="cls-2" cx="160.59" cy="149.23" rx="6.47" ry="8.23"/></g><g><ellipse class="cls-5" cx="234.58" cy="159.87" rx="19.48" ry="27.27"/><ellipse class="cls-2" cx="241.11" cy="149.7" rx="6.47" ry="8.23"/></g><g><path class="cls-5" d="M211.81,211.96c-3.68,4.4-9.39,7.67-17.89,7.67-9.43,0-15.06-5.16-18.02-11.36-4.36-9.11-2.97-20.47,.59-21.07,3.89-.66,9.51,3.65,20.24,3.55,10.73-.1,17.13-2.71,19.39-1.23,2.39,1.56,2.74,14.04-4.3,22.43Z"/><path class="cls-6" d="M211.81,211.96c-3.68,4.4-9.39,7.67-17.89,7.67-9.43,0-15.06-5.16-18.02-11.36,7.5-5.48,15.61-5.35,21.03-4.36,4.66,.85,10.9,3.48,14.89,8.05Z"/></g></g></svg>